User Type,Username,Date,Text
,Uzzzu,2012-02-06T05:23Z,"Format                           : MPEG-TS
Format_Commercial_IfAny          : HDV 720p
File size                        : 574 MiB
Duration                         : 4mn 4s
Overall bit rate                 : 19.7 Mbps
Maximum Overall bit rate         : 19.7 Mbps

Video
ID                               : 4096 (0x1000)
Menu ID                          : 1 (0x1)
Format                           : MPEG Video
Format_Commercial_IfAny          : HDV 720p
Format version                   : Version 2
Format profile                   : Main@High 1440
Format settings, BVOP            : Yes
Format settings, Matrix          : Default
Format settings, GOP             : M=3, N=6
Codec ID                         : 2
Duration                         : 4mn 4s
Bit rate mode                    : Constant
Bit rate                         : 18.3 Mbps
Width                            : 1 280 pixels
Height                           : 720 pixels
Display aspect ratio             : 16:9
Frame rate                       : 25.000 fps
Color space                      : YUV
Chroma subsampling               : 4:2:0
Bit depth                        : 8 bits
Scan type                        : Progressive
Compression mode                 : Lossy
Bits/(Pixel*Frame)               : 0.794
Stream size                      : 534 MiB (93%)

Audio
ID                               : 4098 (0x1002)
Menu ID                          : 1 (0x1)
Format                           : MPEG Audio
Format version                   : Version 1
Format profile                   : Layer 2
Codec ID                         : 3
Duration                         : 4mn 4s
Bit rate mode                    : Constant
Bit rate                         : 384 Kbps
Channel(s)                       : 2 channels
Sampling rate                    : 48.0 KHz
Compression mode                 : Lossy
Stream size                      : 11.2 MiB (2%)

Menu
ID                               : 110 (0x6E)
Menu ID                          : 1 (0x1)
List                             : 4096 (0x1000) (MPEG Video) / 4098 (0x1002) (MPEG Audio)
Maximum bit rate                 : 19700000
"
,Uzzzu,2012-02-10T00:53Z,HDrip-720p ---->>> http://thepiratebay.se/torrent/7020535
